<?xml version="1.0" encoding="UTF-8"?>
<svg id="Layer_1" data-name="Layer 1" xmlns="http://www.w3.org/2000/svg" viewBox="0 0 1898.7 1898.7">
  <defs>
    <style>
      .cls-1 {
        fill: #fff;
      }
    </style>
  </defs>
  <circle cx="949.3" cy="949.3" r="845.5"/>
  <g>
    <circle class="cls-1" cx="949.3" cy="949.3" r="818.6"/>
    <path d="M598.5,839.3c18.1,52.4,46.7,54.2,46.9,77.4s-30,40-80.4,16-111.5-71.2-111.5-148.7,65.1-150.8,126.4-190.8c61.3-40,131.1-67.3,214.7-67.3s163.4,56.3,187.3,127.1,17.6,173.9,14.4,274-14.4,187.9-11.3,246.5c0,0,118.9-254.6,216.8-412.7s126.4-183.6,169.1-201.5c42.7-17.9,86.9-18.2,112.2-22.1,25.3-4,38.7-4.5,47.1,8.2,8.4,12.6,4.7,22.4-10,45.6s-84.1,153.8-136.8,313-77.3,288-63,343.3c14.3,55.4,77.8,43,120.6-8.8s53.7-72.3,53.7-72.3c0,0,18.3-.9,27,9.7s13.2,22.1,3,41.1-56.2,96.2-117.1,131.1c-71.2,40.8-151.2,20.9-189.1-33.7-37.9-54.5-39.9-128.2-15.3-233s70.8-238.8,100.5-316c0,0-74.6,105.7-145.7,247.6-71.1,141.9-112.6,243.7-133.8,286.7-21.2,43.1-47.5,62.8-80.2,62.8s-74-26.1-84-88.6,6.3-217.8,10.7-301.6c4.3-83.8,1.7-131.6,1.7-131.6,0,0-45,141.4-77.6,228.3s-89.8,224.7-170.3,275.2-175.4,30.1-238.3-34.4-80.9-127-40.4-195c40.4-68,127.4-103.6,161.6-105.3,21.5-1.1,31.3,15,31.3,27.2s-11.9,18-32.4,39.5-58.5,72.7-58.5,127.6,46.4,93.3,94.2,64.7,108.9-120.1,158.6-221.9c49.7-101.8,121.5-269.4,131.4-358.8,9.9-89.4-46.7-96.9-93.1-79.7-95.9,35.5-171.7,139.8-140.1,231.2Z"/>
  </g>
</svg>